{
    "streams": [
        {
            "index": 0,
            "codec_name": "hevc",
            "codec_long_name": "H.265 / HEVC (High Efficiency Video Coding)",
            "profile": "Main 10",
            "codec_type": "video",
            "codec_time_base": "1001/24000",
            "codec_tag_string": "[0][0][0][0]",
            "codec_tag": "0x0000",
            "width": 3840,
            "height": 2160,
            "coded_width": 3840,
            "coded_height": 2160,
            "has_b_frames": 1,
            "sample_aspect_ratio": "1:1",
            "display_aspect_ratio": "16:9",
            "pix_fmt": "yuv420p10le",
            "level": 153,
            "color_range": "tv",
            "color_space": "bt2020nc",
            "color_transfer": "smpte2084",
            "color_primaries": "bt2020",
            "refs": 1,
            "r_frame_rate": "24000/1001",
            "avg_frame_rate": "24000/1001",
            "time_base": "1/1000",
            "start_pts": 8,
            "start_time": "0.008000",
            "disposition": {
                "default": 1,
                "dub": 0,
                "original": 0,
                "comment": 0,
                "lyrics": 0,
                "karaoke": 0,
                "forced": 0,
                "hearing_impaired": 0,
                "visual_impaired": 0,
                "clean_effects": 0,
                "attached_pic": 0,
                "timed_thumbnails": 0
            },
            "tags": {
                "title": "Spider-Man.Into.the.Spider-Verse.2018.2160p.BluRay.REMUX.HEVC.DTS-HD.MA.TrueHD.7.1.Atmos-FGT",
                "BPS-eng": "47541258",
                "DURATION-eng": "01:56:50.031000000",
                "NUMBER_OF_FRAMES-eng": "168072",
                "NUMBER_OF_BYTES-eng": "41658212369",
                "_STATISTICS_WRITING_APP-eng": "mkvmerge v31.0.0 ('Dolores In A Shoestand') 64-bit",
                "_STATISTICS_WRITING_DATE_UTC-eng": "2019-03-10 21:41:18",
                "_STATISTICS_TAGS-eng": "BPS DURATION NUMBER_OF_FRAMES NUMBER_OF_BYTES"
            }
        },
        {
            "index": 1,
            "codec_name": "truehd",
            "codec_long_name": "TrueHD",
            "codec_type": "audio",
            "codec_time_base": "1/48000",
            "codec_tag_string": "[0][0][0][0]",
            "codec_tag": "0x0000",
            "sample_fmt": "s32",
            "sample_rate": "48000",
            "channels": 8,
            "channel_layout": "7.1",
            "bits_per_sample": 0,
            "r_frame_rate": "0/0",
            "avg_frame_rate": "0/0",
            "time_base": "1/1000",
            "start_pts": 8,
            "start_time": "0.008000",
            "bits_per_raw_sample": "24",
            "disposition": {
                "default": 1,
                "dub": 0,
                "original": 0,
                "comment": 0,
                "lyrics": 0,
                "karaoke": 0,
                "forced": 0,
                "hearing_impaired": 0,
                "visual_impaired": 0,
                "clean_effects": 0,
                "attached_pic": 0,
                "timed_thumbnails": 0
            },
            "tags": {
                "language": "eng",
                "title": "Spider-Man.Into.the.Spider-Verse.2018.2160p.BluRay.REMUX.HEVC.DTS-HD.MA.TrueHD.7.1.Atmos-FGT",
                "BPS-eng": "3266687",
                "DURATION-eng": "01:56:50.043000000",
                "NUMBER_OF_FRAMES-eng": "8412004",
                "NUMBER_OF_BYTES-eng": "2862452916",
                "_STATISTICS_WRITING_APP-eng": "mkvmerge v31.0.0 ('Dolores In A Shoestand') 64-bit",
                "_STATISTICS_WRITING_DATE_UTC-eng": "2019-03-10 21:41:18",
                "_STATISTICS_TAGS-eng": "BPS DURATION NUMBER_OF_FRAMES NUMBER_OF_BYTES"
            }
        },
        {
            "index": 2,
            "codec_name": "dts",
            "codec_long_name": "DCA (DTS Coherent Acoustics)",
            "profile": "DTS-HD MA",
            "codec_type": "audio",
            "codec_time_base": "1/48000",
            "codec_tag_string": "[0][0][0][0]",
            "codec_tag": "0x0000",
            "sample_fmt": "s32p",
            "sample_rate": "48000",
            "channels": 8,
            "channel_layout": "7.1",
            "bits_per_sample": 0,
            "r_frame_rate": "0/0",
            "avg_frame_rate": "0/0",
            "time_base": "1/1000",
            "start_pts": 0,
            "start_time": "0.000000",
            "bits_per_raw_sample": "24",
            "disposition": {
                "default": 0,
                "dub": 0,
                "original": 0,
                "comment": 0,
                "lyrics": 0,
                "karaoke": 0,
                "forced": 0,
                "hearing_impaired": 0,
                "visual_impaired": 0,
                "clean_effects": 0,
                "attached_pic": 0,
                "timed_thumbnails": 0
            },
            "tags": {
                "language": "eng",
                "title": "Spider-Man.Into.the.Spider-Verse.2018.2160p.BluRay.REMUX.HEVC.DTS-HD.MA.TrueHD.7.1.Atmos-FGT",
                "BPS-eng": "4069184",
                "DURATION-eng": "01:56:50.070000000",
                "NUMBER_OF_FRAMES-eng": "657194",
                "NUMBER_OF_BYTES-eng": "3565658648",
                "_STATISTICS_WRITING_APP-eng": "mkvmerge v31.0.0 ('Dolores In A Shoestand') 64-bit",
                "_STATISTICS_WRITING_DATE_UTC-eng": "2019-03-10 21:41:18",
                "_STATISTICS_TAGS-eng": "BPS DURATION NUMBER_OF_FRAMES NUMBER_OF_BYTES"
            }
        },
        {
            "index": 3,
            "codec_name": "ac3",
            "codec_long_name": "ATSC A/52A (AC-3)",
            "codec_type": "audio",
            "codec_time_base": "1/48000",
            "codec_tag_string": "[0][0][0][0]",
            "codec_tag": "0x0000",
            "sample_fmt": "fltp",
            "sample_rate": "48000",
            "channels": 6,
            "channel_layout": "5.1(side)",
            "bits_per_sample": 0,
            "dmix_mode": "-1",
            "ltrt_cmixlev": "-1.000000",
            "ltrt_surmixlev": "-1.000000",
            "loro_cmixlev": "-1.000000",
            "loro_surmixlev": "-1.000000",
            "r_frame_rate": "0/0",
            "avg_frame_rate": "0/0",
            "time_base": "1/1000",
            "start_pts": 8,
            "start_time": "0.008000",
            "bit_rate": "640000",
            "disposition": {
                "default": 0,
                "dub": 0,
                "original": 0,
                "comment": 0,
                "lyrics": 0,
                "karaoke": 0,
                "forced": 0,
                "hearing_impaired": 0,
                "visual_impaired": 0,
                "clean_effects": 0,
                "attached_pic": 0,
                "timed_thumbnails": 0
            },
            "tags": {
                "language": "eng",
                "title": "Spider-Man.Into.the.Spider-Verse.2018.2160p.BluRay.REMUX.HEVC.DTS-HD.MA.TrueHD.7.1.Atmos-FGT",
                "BPS-eng": "639997",
                "DURATION-eng": "01:56:50.044000000",
                "NUMBER_OF_FRAMES-eng": "219063",
                "NUMBER_OF_BYTES-eng": "560801280",
                "_STATISTICS_WRITING_APP-eng": "mkvmerge v31.0.0 ('Dolores In A Shoestand') 64-bit",
                "_STATISTICS_WRITING_DATE_UTC-eng": "2019-03-10 21:41:18",
                "_STATISTICS_TAGS-eng": "BPS DURATION NUMBER_OF_FRAMES NUMBER_OF_BYTES"
            }
        },
        {
            "index": 4,
            "codec_name": "ac3",
            "codec_long_name": "ATSC A/52A (AC-3)",
            "codec_type": "audio",
            "codec_time_base": "1/48000",
            "codec_tag_string": "[0][0][0][0]",
            "codec_tag": "0x0000",
            "sample_fmt": "fltp",
            "sample_rate": "48000",
            "channels": 6,
            "channel_layout": "5.1(side)",
            "bits_per_sample": 0,
            "dmix_mode": "-1",
            "ltrt_cmixlev": "-1.000000",
            "ltrt_surmixlev": "-1.000000",
            "loro_cmixlev": "-1.000000",
            "loro_surmixlev": "-1.000000",
            "r_frame_rate": "0/0",
            "avg_frame_rate": "0/0",
            "time_base": "1/1000",
            "start_pts": 32,
            "start_time": "0.032000",
            "bit_rate": "448000",
            "disposition": {
                "default": 0,
                "dub": 0,
                "original": 0,
                "comment": 0,
                "lyrics": 0,
                "karaoke": 0,
                "forced": 0,
                "hearing_impaired": 0,
                "visual_impaired": 0,
                "clean_effects": 0,
                "attached_pic": 0,
                "timed_thumbnails": 0
            },
            "tags": {
                "language": "eng",
                "title": "Spider-Man.Into.the.Spider-Verse.2018.2160p.BluRay.REMUX.HEVC.DTS-HD.MA.TrueHD.7.1.Atmos-FGT",
                "BPS-eng": "447999",
                "DURATION-eng": "01:56:50.024000000",
                "NUMBER_OF_FRAMES-eng": "219063",
                "NUMBER_OF_BYTES-eng": "392560896",
                "_STATISTICS_WRITING_APP-eng": "mkvmerge v31.0.0 ('Dolores In A Shoestand') 64-bit",
                "_STATISTICS_WRITING_DATE_UTC-eng": "2019-03-10 21:41:18",
                "_STATISTICS_TAGS-eng": "BPS DURATION NUMBER_OF_FRAMES NUMBER_OF_BYTES"
            }
        },
        {
            "index": 5,
            "codec_name": "ac3",
            "codec_long_name": "ATSC A/52A (AC-3)",
            "codec_type": "audio",
            "codec_time_base": "1/48000",
            "codec_tag_string": "[0][0][0][0]",
            "codec_tag": "0x0000",
            "sample_fmt": "fltp",
            "sample_rate": "48000",
            "channels": 6,
            "channel_layout": "5.1(side)",
            "bits_per_sample": 0,
            "dmix_mode": "-1",
            "ltrt_cmixlev": "-1.000000",
            "ltrt_surmixlev": "-1.000000",
            "loro_cmixlev": "-1.000000",
            "loro_surmixlev": "-1.000000",
            "r_frame_rate": "0/0",
            "avg_frame_rate": "0/0",
            "time_base": "1/1000",
            "start_pts": 32,
            "start_time": "0.032000",
            "bit_rate": "448000",
            "disposition": {
                "default": 0,
                "dub": 0,
                "original": 0,
                "comment": 0,
                "lyrics": 0,
                "karaoke": 0,
                "forced": 0,
                "hearing_impaired": 0,
                "visual_impaired": 0,
                "clean_effects": 0,
                "attached_pic": 0,
                "timed_thumbnails": 0
            },
            "tags": {
                "language": "fre",
                "title": "Spider-Man.Into.the.Spider-Verse.2018.2160p.BluRay.REMUX.HEVC.DTS-HD.MA.TrueHD.7.1.Atmos-FGT",
                "BPS-eng": "447999",
                "DURATION-eng": "01:56:50.024000000",
                "NUMBER_OF_FRAMES-eng": "219063",
                "NUMBER_OF_BYTES-eng": "392560896",
                "_STATISTICS_WRITING_APP-eng": "mkvmerge v31.0.0 ('Dolores In A Shoestand') 64-bit",
                "_STATISTICS_WRITING_DATE_UTC-eng": "2019-03-10 21:41:18",
                "_STATISTICS_TAGS-eng": "BPS DURATION NUMBER_OF_FRAMES NUMBER_OF_BYTES"
            }
        },
        {
            "index": 6,
            "codec_name": "ac3",
            "codec_long_name": "ATSC A/52A (AC-3)",
            "codec_type": "audio",
            "codec_time_base": "1/48000",
            "codec_tag_string": "[0][0][0][0]",
            "codec_tag": "0x0000",
            "sample_fmt": "fltp",
            "sample_rate": "48000",
            "channels": 6,
            "channel_layout": "5.1(side)",
            "bits_per_sample": 0,
            "dmix_mode": "-1",
            "ltrt_cmixlev": "-1.000000",
            "ltrt_surmixlev": "-1.000000",
            "loro_cmixlev": "-1.000000",
            "loro_surmixlev": "-1.000000",
            "r_frame_rate": "0/0",
            "avg_frame_rate": "0/0",
            "time_base": "1/1000",
            "start_pts": 32,
            "start_time": "0.032000",
            "bit_rate": "448000",
            "disposition": {
                "default": 0,
                "dub": 0,
                "original": 0,
                "comment": 0,
                "lyrics": 0,
                "karaoke": 0,
                "forced": 0,
                "hearing_impaired": 0,
                "visual_impaired": 0,
                "clean_effects": 0,
                "attached_pic": 0,
                "timed_thumbnails": 0
            },
            "tags": {
                "language": "fre",
                "title": "Spider-Man.Into.the.Spider-Verse.2018.2160p.BluRay.REMUX.HEVC.DTS-HD.MA.TrueHD.7.1.Atmos-FGT",
                "BPS-eng": "447999",
                "DURATION-eng": "01:56:50.024000000",
                "NUMBER_OF_FRAMES-eng": "219063",
                "NUMBER_OF_BYTES-eng": "392560896",
                "_STATISTICS_WRITING_APP-eng": "mkvmerge v31.0.0 ('Dolores In A Shoestand') 64-bit",
                "_STATISTICS_WRITING_DATE_UTC-eng": "2019-03-10 21:41:18",
                "_STATISTICS_TAGS-eng": "BPS DURATION NUMBER_OF_FRAMES NUMBER_OF_BYTES"
            }
        },
        {
            "index": 7,
            "codec_name": "ac3",
            "codec_long_name": "ATSC A/52A (AC-3)",
            "codec_type": "audio",
            "codec_time_base": "1/48000",
            "codec_tag_string": "[0][0][0][0]",
            "codec_tag": "0x0000",
            "sample_fmt": "fltp",
            "sample_rate": "48000",
            "channels": 6,
            "channel_layout": "5.1(side)",
            "bits_per_sample": 0,
            "dmix_mode": "-1",
            "ltrt_cmixlev": "-1.000000",
            "ltrt_surmixlev": "-1.000000",
            "loro_cmixlev": "-1.000000",
            "loro_surmixlev": "-1.000000",
            "r_frame_rate": "0/0",
            "avg_frame_rate": "0/0",
            "time_base": "1/1000",
            "start_pts": 32,
            "start_time": "0.032000",
            "bit_rate": "448000",
            "disposition": {
                "default": 0,
                "dub": 0,
                "original": 0,
                "comment": 0,
                "lyrics": 0,
                "karaoke": 0,
                "forced": 0,
                "hearing_impaired": 0,
                "visual_impaired": 0,
                "clean_effects": 0,
                "attached_pic": 0,
                "timed_thumbnails": 0
            },
            "tags": {
                "language": "spa",
                "title": "Spider-Man.Into.the.Spider-Verse.2018.2160p.BluRay.REMUX.HEVC.DTS-HD.MA.TrueHD.7.1.Atmos-FGT",
                "BPS-eng": "447999",
                "DURATION-eng": "01:56:50.024000000",
                "NUMBER_OF_FRAMES-eng": "219063",
                "NUMBER_OF_BYTES-eng": "392560896",
                "_STATISTICS_WRITING_APP-eng": "mkvmerge v31.0.0 ('Dolores In A Shoestand') 64-bit",
                "_STATISTICS_WRITING_DATE_UTC-eng": "2019-03-10 21:41:18",
                "_STATISTICS_TAGS-eng": "BPS DURATION NUMBER_OF_FRAMES NUMBER_OF_BYTES"
            }
        },
        {
            "index": 8,
            "codec_name": "ac3",
            "codec_long_name": "ATSC A/52A (AC-3)",
            "codec_type": "audio",
            "codec_time_base": "1/48000",
            "codec_tag_string": "[0][0][0][0]",
            "codec_tag": "0x0000",
            "sample_fmt": "fltp",
            "sample_rate": "48000",
            "channels": 2,
            "channel_layout": "stereo",
            "bits_per_sample": 0,
            "dmix_mode": "-1",
            "ltrt_cmixlev": "-1.000000",
            "ltrt_surmixlev": "-1.000000",
            "loro_cmixlev": "-1.000000",
            "loro_surmixlev": "-1.000000",
            "r_frame_rate": "0/0",
            "avg_frame_rate": "0/0",
            "time_base": "1/1000",
            "start_pts": 32,
            "start_time": "0.032000",
            "bit_rate": "192000",
            "disposition": {
                "default": 0,
                "dub": 0,
                "original": 0,
                "comment": 0,
                "lyrics": 0,
                "karaoke": 0,
                "forced": 0,
                "hearing_impaired": 0,
                "visual_impaired": 0,
                "clean_effects": 0,
                "attached_pic": 0,
                "timed_thumbnails": 0
            },
            "tags": {
                "language": "eng",
                "title": "Spider-Man.Into.the.Spider-Verse.2018.2160p.BluRay.REMUX.HEVC.DTS-HD.MA.TrueHD.7.1.Atmos-FGT",
                "BPS-eng": "191999",
                "DURATION-eng": "01:56:50.024000000",
                "NUMBER_OF_FRAMES-eng": "219063",
                "NUMBER_OF_BYTES-eng": "168240384",
                "_STATISTICS_WRITING_APP-eng": "mkvmerge v31.0.0 ('Dolores In A Shoestand') 64-bit",
                "_STATISTICS_WRITING_DATE_UTC-eng": "2019-03-10 21:41:18",
                "_STATISTICS_TAGS-eng": "BPS DURATION NUMBER_OF_FRAMES NUMBER_OF_BYTES"
            }
        },
        {
            "index": 9,
            "codec_name": "subrip",
            "codec_long_name": "SubRip subtitle",
            "codec_type": "subtitle",
            "codec_time_base": "0/1",
            "codec_tag_string": "[0][0][0][0]",
            "codec_tag": "0x0000",
            "r_frame_rate": "0/0",
            "avg_frame_rate": "0/0",
            "time_base": "1/1000",
            "start_pts": 0,
            "start_time": "0.000000",
            "duration_ts": 7010070,
            "duration": "7010.070000",
            "disposition": {
                "default": 1,
                "dub": 0,
                "original": 0,
                "comment": 0,
                "lyrics": 0,
                "karaoke": 0,
                "forced": 0,
                "hearing_impaired": 0,
                "visual_impaired": 0,
                "clean_effects": 0,
                "attached_pic": 0,
                "timed_thumbnails": 0
            },
            "tags": {
                "language": "eng",
                "title": "English-SRT",
                "BPS-eng": "55",
                "DURATION-eng": "01:55:18.377000000",
                "NUMBER_OF_FRAMES-eng": "1540",
                "NUMBER_OF_BYTES-eng": "47983",
                "_STATISTICS_WRITING_APP-eng": "mkvmerge v31.0.0 ('Dolores In A Shoestand') 64-bit",
                "_STATISTICS_WRITING_DATE_UTC-eng": "2019-03-10 21:41:18",
                "_STATISTICS_TAGS-eng": "BPS DURATION NUMBER_OF_FRAMES NUMBER_OF_BYTES"
            }
        },
        {
            "index": 10,
            "codec_name": "hdmv_pgs_subtitle",
            "codec_long_name": "HDMV Presentation Graphic Stream subtitles",
            "codec_type": "subtitle",
            "codec_time_base": "0/1",
            "codec_tag_string": "[0][0][0][0]",
            "codec_tag": "0x0000",
            "r_frame_rate": "0/0",
            "avg_frame_rate": "0/0",
            "time_base": "1/1000",
            "start_pts": 0,
            "start_time": "0.000000",
            "duration_ts": 7010070,
            "duration": "7010.070000",
            "disposition": {
                "default": 0,
                "dub": 0,
                "original": 0,
                "comment": 0,
                "lyrics": 0,
                "karaoke": 0,
                "forced": 0,
                "hearing_impaired": 0,
                "visual_impaired": 0,
                "clean_effects": 0,
                "attached_pic": 0,
                "timed_thumbnails": 0
            },
            "tags": {
                "language": "eng",
                "title": "English-PGS",
                "BPS-eng": "32624",
                "DURATION-eng": "01:55:17.897000000",
                "NUMBER_OF_FRAMES-eng": "2744",
                "NUMBER_OF_BYTES-eng": "28211341",
                "_STATISTICS_WRITING_APP-eng": "mkvmerge v31.0.0 ('Dolores In A Shoestand') 64-bit",
                "_STATISTICS_WRITING_DATE_UTC-eng": "2019-03-10 21:41:18",
                "_STATISTICS_TAGS-eng": "BPS DURATION NUMBER_OF_FRAMES NUMBER_OF_BYTES"
            }
        },
        {
            "index": 11,
            "codec_name": "hdmv_pgs_subtitle",
            "codec_long_name": "HDMV Presentation Graphic Stream subtitles",
            "codec_type": "subtitle",
            "codec_time_base": "0/1",
            "codec_tag_string": "[0][0][0][0]",
            "codec_tag": "0x0000",
            "r_frame_rate": "0/0",
            "avg_frame_rate": "0/0",
            "time_base": "1/1000",
            "start_pts": 0,
            "start_time": "0.000000",
            "duration_ts": 7010070,
            "duration": "7010.070000",
            "disposition": {
                "default": 0,
                "dub": 0,
                "original": 0,
                "comment": 0,
                "lyrics": 0,
                "karaoke": 0,
                "forced": 0,
                "hearing_impaired": 0,
                "visual_impaired": 0,
                "clean_effects": 0,
                "attached_pic": 0,
                "timed_thumbnails": 0
            },
            "tags": {
                "language": "eng",
                "title": "English-SDH-PGS",
                "BPS-eng": "44187",
                "DURATION-eng": "01:55:36.790000000",
                "NUMBER_OF_FRAMES-eng": "3720",
                "NUMBER_OF_BYTES-eng": "38314813",
                "_STATISTICS_WRITING_APP-eng": "mkvmerge v31.0.0 ('Dolores In A Shoestand') 64-bit",
                "_STATISTICS_WRITING_DATE_UTC-eng": "2019-03-10 21:41:18",
                "_STATISTICS_TAGS-eng": "BPS DURATION NUMBER_OF_FRAMES NUMBER_OF_BYTES"
            }
        },
        {
            "index": 12,
            "codec_name": "hdmv_pgs_subtitle",
            "codec_long_name": "HDMV Presentation Graphic Stream subtitles",
            "codec_type": "subtitle",
            "codec_time_base": "0/1",
            "codec_tag_string": "[0][0][0][0]",
            "codec_tag": "0x0000",
            "r_frame_rate": "0/0",
            "avg_frame_rate": "0/0",
            "time_base": "1/1000",
            "start_pts": 0,
            "start_time": "0.000000",
            "duration_ts": 7010070,
            "duration": "7010.070000",
            "disposition": {
                "default": 0,
                "dub": 0,
                "original": 0,
                "comment": 0,
                "lyrics": 0,
                "karaoke": 0,
                "forced": 0,
                "hearing_impaired": 0,
                "visual_impaired": 0,
                "clean_effects": 0,
                "attached_pic": 0,
                "timed_thumbnails": 0
            },
            "tags": {
                "language": "fre",
                "title": "French-PGS",
                "BPS-eng": "28450",
                "DURATION-eng": "01:55:28.491000000",
                "NUMBER_OF_FRAMES-eng": "2870",
                "NUMBER_OF_BYTES-eng": "24640302",
                "_STATISTICS_WRITING_APP-eng": "mkvmerge v31.0.0 ('Dolores In A Shoestand') 64-bit",
                "_STATISTICS_WRITING_DATE_UTC-eng": "2019-03-10 21:41:18",
                "_STATISTICS_TAGS-eng": "BPS DURATION NUMBER_OF_FRAMES NUMBER_OF_BYTES"
            }
        },
        {
            "index": 13,
            "codec_name": "hdmv_pgs_subtitle",
            "codec_long_name": "HDMV Presentation Graphic Stream subtitles",
            "codec_type": "subtitle",
            "codec_time_base": "0/1",
            "codec_tag_string": "[0][0][0][0]",
            "codec_tag": "0x0000",
            "r_frame_rate": "0/0",
            "avg_frame_rate": "0/0",
            "time_base": "1/1000",
            "start_pts": 0,
            "start_time": "0.000000",
            "duration_ts": 7010070,
            "duration": "7010.070000",
            "disposition": {
                "default": 0,
                "dub": 0,
                "original": 0,
                "comment": 0,
                "lyrics": 0,
                "karaoke": 0,
                "forced": 0,
                "hearing_impaired": 0,
                "visual_impaired": 0,
                "clean_effects": 0,
                "attached_pic": 0,
                "timed_thumbnails": 0
            },
            "tags": {
                "language": "spa",
                "title": "Spanish-PGS",
                "BPS-eng": "31600",
                "DURATION-eng": "01:55:28.491000000",
                "NUMBER_OF_FRAMES-eng": "2758",
                "NUMBER_OF_BYTES-eng": "27368308",
                "_STATISTICS_WRITING_APP-eng": "mkvmerge v31.0.0 ('Dolores In A Shoestand') 64-bit",
                "_STATISTICS_WRITING_DATE_UTC-eng": "2019-03-10 21:41:18",
                "_STATISTICS_TAGS-eng": "BPS DURATION NUMBER_OF_FRAMES NUMBER_OF_BYTES"
            }
        },
        {
            "index": 14,
            "codec_name": "hdmv_pgs_subtitle",
            "codec_long_name": "HDMV Presentation Graphic Stream subtitles",
            "codec_type": "subtitle",
            "codec_time_base": "0/1",
            "codec_tag_string": "[0][0][0][0]",
            "codec_tag": "0x0000",
            "r_frame_rate": "0/0",
            "avg_frame_rate": "0/0",
            "time_base": "1/1000",
            "start_pts": 0,
            "start_time": "0.000000",
            "duration_ts": 7010070,
            "duration": "7010.070000",
            "disposition": {
                "default": 0,
                "dub": 0,
                "original": 0,
                "comment": 0,
                "lyrics": 0,
                "karaoke": 0,
                "forced": 0,
                "hearing_impaired": 0,
                "visual_impaired": 0,
                "clean_effects": 0,
                "attached_pic": 0,
                "timed_thumbnails": 0
            },
            "tags": {
                "language": "fre",
                "title": "French-FORCED-PGS",
                "BPS-eng": "886",
                "DURATION-eng": "01:42:39.139000000",
                "NUMBER_OF_FRAMES-eng": "72",
                "NUMBER_OF_BYTES-eng": "682623",
                "_STATISTICS_WRITING_APP-eng": "mkvmerge v31.0.0 ('Dolores In A Shoestand') 64-bit",
                "_STATISTICS_WRITING_DATE_UTC-eng": "2019-03-10 21:41:18",
                "_STATISTICS_TAGS-eng": "BPS DURATION NUMBER_OF_FRAMES NUMBER_OF_BYTES"
            }
        },
        {
            "index": 15,
            "codec_name": "hdmv_pgs_subtitle",
            "codec_long_name": "HDMV Presentation Graphic Stream subtitles",
            "codec_type": "subtitle",
            "codec_time_base": "0/1",
            "codec_tag_string": "[0][0][0][0]",
            "codec_tag": "0x0000",
            "width": 1920,
            "height": 1080,
            "r_frame_rate": "0/0",
            "avg_frame_rate": "0/0",
            "time_base": "1/1000",
            "start_pts": 2677,
            "start_time": "2.677000",
            "disposition": {
                "default": 0,
                "dub": 0,
                "original": 0,
                "comment": 0,
                "lyrics": 0,
                "karaoke": 0,
                "forced": 0,
                "hearing_impaired": 0,
                "visual_impaired": 0,
                "clean_effects": 0,
                "attached_pic": 0,
                "timed_thumbnails": 0
            },
            "tags": {
                "language": "eng",
                "title": "English-COMMENTARY-PGS",
                "BPS-eng": "80422",
                "DURATION-eng": "01:56:44.817000000",
                "NUMBER_OF_FRAMES-eng": "4608",
                "NUMBER_OF_BYTES-eng": "70418374",
                "_STATISTICS_WRITING_APP-eng": "mkvmerge v31.0.0 ('Dolores In A Shoestand') 64-bit",
                "_STATISTICS_WRITING_DATE_UTC-eng": "2019-03-10 21:41:18",
                "_STATISTICS_TAGS-eng": "BPS DURATION NUMBER_OF_FRAMES NUMBER_OF_BYTES"
            }
        },
        {
            "index": 16,
            "codec_name": "hdmv_pgs_subtitle",
            "codec_long_name": "HDMV Presentation Graphic Stream subtitles",
            "codec_type": "subtitle",
            "codec_time_base": "0/1",
            "codec_tag_string": "[0][0][0][0]",
            "codec_tag": "0x0000",
            "width": 1920,
            "height": 1080,
            "r_frame_rate": "0/0",
            "avg_frame_rate": "0/0",
            "time_base": "1/1000",
            "start_pts": 2677,
            "start_time": "2.677000",
            "disposition": {
                "default": 0,
                "dub": 0,
                "original": 0,
                "comment": 0,
                "lyrics": 0,
                "karaoke": 0,
                "forced": 0,
                "hearing_impaired": 0,
                "visual_impaired": 0,
                "clean_effects": 0,
                "attached_pic": 0,
                "timed_thumbnails": 0
            },
            "tags": {
                "language": "spa",
                "title": "Spanish-COMMENTARY-PGS",
                "BPS-eng": "62910",
                "DURATION-eng": "01:56:44.817000000",
                "NUMBER_OF_FRAMES-eng": "4189",
                "NUMBER_OF_BYTES-eng": "55084829",
                "_STATISTICS_WRITING_APP-eng": "mkvmerge v31.0.0 ('Dolores In A Shoestand') 64-bit",
                "_STATISTICS_WRITING_DATE_UTC-eng": "2019-03-10 21:41:18",
                "_STATISTICS_TAGS-eng": "BPS DURATION NUMBER_OF_FRAMES NUMBER_OF_BYTES"
            }
        },
        {
            "index": 17,
            "codec_name": "mjpeg",
            "codec_long_name": "Motion JPEG",
            "profile": "192",
            "codec_type": "video",
            "codec_time_base": "0/1",
            "codec_tag_string": "[0][0][0][0]",
            "codec_tag": "0x0000",
            "width": 120,
            "height": 176,
            "coded_width": 120,
            "coded_height": 176,
            "has_b_frames": 0,
            "pix_fmt": "yuvj444p",
            "level": -99,
            "color_range": "pc",
            "color_space": "bt470bg",
            "chroma_location": "center",
            "refs": 1,
            "r_frame_rate": "90000/1",
            "avg_frame_rate": "0/0",
            "time_base": "1/90000",
            "start_pts": 0,
            "start_time": "0.000000",
            "duration_ts": 630906300,
            "duration": "7010.070000",
            "bits_per_raw_sample": "8",
            "disposition": {
                "default": 0,
                "dub": 0,
                "original": 0,
                "comment": 0,
                "lyrics": 0,
                "karaoke": 0,
                "forced": 0,
                "hearing_impaired": 0,
                "visual_impaired": 0,
                "clean_effects": 0,
                "attached_pic": 1,
                "timed_thumbnails": 0
            },
            "tags": {
                "filename": "small_cover.jpg",
                "mimetype": "image/jpeg"
            }
        },
        {
            "index": 18,
            "codec_name": "mjpeg",
            "codec_long_name": "Motion JPEG",
            "profile": "192",
            "codec_type": "video",
            "codec_time_base": "0/1",
            "codec_tag_string": "[0][0][0][0]",
            "codec_tag": "0x0000",
            "width": 213,
            "height": 120,
            "coded_width": 213,
            "coded_height": 120,
            "has_b_frames": 0,
            "pix_fmt": "yuvj444p",
            "level": -99,
            "color_range": "pc",
            "color_space": "bt470bg",
            "chroma_location": "center",
            "refs": 1,
            "r_frame_rate": "90000/1",
            "avg_frame_rate": "0/0",
            "time_base": "1/90000",
            "start_pts": 0,
            "start_time": "0.000000",
            "duration_ts": 630906300,
            "duration": "7010.070000",
            "bits_per_raw_sample": "8",
            "disposition": {
                "default": 0,
                "dub": 0,
                "original": 0,
                "comment": 0,
                "lyrics": 0,
                "karaoke": 0,
                "forced": 0,
                "hearing_impaired": 0,
                "visual_impaired": 0,
                "clean_effects": 0,
                "attached_pic": 1,
                "timed_thumbnails": 0
            },
            "tags": {
                "filename": "small_cover_land.jpg",
                "mimetype": "image/jpeg"
            }
        },
        {
            "index": 19,
            "codec_name": "mjpeg",
            "codec_long_name": "Motion JPEG",
            "profile": "192",
            "codec_type": "video",
            "codec_time_base": "0/1",
            "codec_tag_string": "[0][0][0][0]",
            "codec_tag": "0x0000",
            "width": 600,
            "height": 882,
            "coded_width": 600,
            "coded_height": 882,
            "has_b_frames": 0,
            "pix_fmt": "yuvj444p",
            "level": -99,
            "color_range": "pc",
            "color_space": "bt470bg",
            "chroma_location": "center",
            "refs": 1,
            "r_frame_rate": "90000/1",
            "avg_frame_rate": "0/0",
            "time_base": "1/90000",
            "start_pts": 0,
            "start_time": "0.000000",
            "duration_ts": 630906300,
            "duration": "7010.070000",
            "bits_per_raw_sample": "8",
            "disposition": {
                "default": 0,
                "dub": 0,
                "original": 0,
                "comment": 0,
                "lyrics": 0,
                "karaoke": 0,
                "forced": 0,
                "hearing_impaired": 0,
                "visual_impaired": 0,
                "clean_effects": 0,
                "attached_pic": 1,
                "timed_thumbnails": 0
            },
            "tags": {
                "filename": "cover.jpg",
                "mimetype": "image/jpeg"
            }
        },
        {
            "index": 20,
            "codec_name": "mjpeg",
            "codec_long_name": "Motion JPEG",
            "profile": "192",
            "codec_type": "video",
            "codec_time_base": "0/1",
            "codec_tag_string": "[0][0][0][0]",
            "codec_tag": "0x0000",
            "width": 1067,
            "height": 600,
            "coded_width": 1067,
            "coded_height": 600,
            "has_b_frames": 0,
            "pix_fmt": "yuvj444p",
            "level": -99,
            "color_range": "pc",
            "color_space": "bt470bg",
            "chroma_location": "center",
            "refs": 1,
            "r_frame_rate": "90000/1",
            "avg_frame_rate": "0/0",
            "time_base": "1/90000",
            "start_pts": 0,
            "start_time": "0.000000",
            "duration_ts": 630906300,
            "duration": "7010.070000",
            "bits_per_raw_sample": "8",
            "disposition": {
                "default": 0,
                "dub": 0,
                "original": 0,
                "comment": 0,
                "lyrics": 0,
                "karaoke": 0,
                "forced": 0,
                "hearing_impaired": 0,
                "visual_impaired": 0,
                "clean_effects": 0,
                "attached_pic": 1,
                "timed_thumbnails": 0
            },
            "tags": {
                "filename": "cover_land.jpg",
                "mimetype": "image/jpeg"
            }
        }
    ],
    "chapters": [
        {
            "id": 529722563,
            "time_base": "1/1000000000",
            "start": 0,
            "start_time": "0.000000",
            "end": 543793244445,
            "end_time": "543.793244",
            "tags": {
                "title": "Chapter 1"
            }
        },
        {
            "id": 1064780259,
            "time_base": "1/1000000000",
            "start": 543793244445,
            "start_time": "543.793244",
            "end": 844718866667,
            "end_time": "844.718867",
            "tags": {
                "title": "Chapter 2"
            }
        },
        {
            "id": -1312848846,
            "time_base": "1/1000000000",
            "start": 844718866667,
            "start_time": "844.718867",
            "end": 1131713911111,
            "end_time": "1131.713911",
            "tags": {
                "title": "Chapter 3"
            }
        },
        {
            "id": -964661918,
            "time_base": "1/1000000000",
            "start": 1131713911111,
            "start_time": "1131.713911",
            "end": 1779027244445,
            "end_time": "1779.027244",
            "tags": {
                "title": "Chapter 4"
            }
        },
        {
            "id": 258923297,
            "time_base": "1/1000000000",
            "start": 1779027244445,
            "start_time": "1779.027244",
            "end": 2054635911111,
            "end_time": "2054.635911",
            "tags": {
                "title": "Chapter 5"
            }
        },
        {
            "id": -1570689826,
            "time_base": "1/1000000000",
            "start": 2054635911111,
            "start_time": "2054.635911",
            "end": 2434432000000,
            "end_time": "2434.432000",
            "tags": {
                "title": "Chapter 6"
            }
        },
        {
            "id": -547566038,
            "time_base": "1/1000000000",
            "start": 2434432000000,
            "start_time": "2434.432000",
            "end": 2662826822222,
            "end_time": "2662.826822",
            "tags": {
                "title": "Chapter 7"
            }
        },
        {
            "id": -1867417880,
            "time_base": "1/1000000000",
            "start": 2662826822222,
            "start_time": "2662.826822",
            "end": 2886884000000,
            "end_time": "2886.884000",
            "tags": {
                "title": "Chapter 8"
            }
        },
        {
            "id": -1649583005,
            "time_base": "1/1000000000",
            "start": 2886884000000,
            "start_time": "2886.884000",
            "end": 3525855666667,
            "end_time": "3525.855667",
            "tags": {
                "title": "Chapter 9"
            }
        },
        {
            "id": 1097461672,
            "time_base": "1/1000000000",
            "start": 3525855666667,
            "start_time": "3525.855667",
            "end": 3964460488889,
            "end_time": "3964.460489",
            "tags": {
                "title": "Chapter 10"
            }
        },
        {
            "id": 956385946,
            "time_base": "1/1000000000",
            "start": 3964460488889,
            "start_time": "3964.460489",
            "end": 4195482955556,
            "end_time": "4195.482956",
            "tags": {
                "title": "Chapter 11"
            }
        },
        {
            "id": -1200911273,
            "time_base": "1/1000000000",
            "start": 4195482955556,
            "start_time": "4195.482956",
            "end": 4800003533334,
            "end_time": "4800.003533",
            "tags": {
                "title": "Chapter 12"
            }
        },
        {
            "id": -815011746,
            "time_base": "1/1000000000",
            "start": 4800003533334,
            "start_time": "4800.003533",
            "end": 5094923155556,
            "end_time": "5094.923156",
            "tags": {
                "title": "Chapter 13"
            }
        },
        {
            "id": 1873707729,
            "time_base": "1/1000000000",
            "start": 5094923155556,
            "start_time": "5094.923156",
            "end": 5613399444445,
            "end_time": "5613.399444",
            "tags": {
                "title": "Chapter 14"
            }
        },
        {
            "id": 1704428112,
            "time_base": "1/1000000000",
            "start": 5613399444445,
            "start_time": "5613.399444",
            "end": 6926919955556,
            "end_time": "6926.919956",
            "tags": {
                "title": "Chapter 15"
            }
        },
        {
            "id": 2103388250,
            "time_base": "1/1000000000",
            "start": 6926919955556,
            "start_time": "6926.919956",
            "end": 7010070000000,
            "end_time": "7010.070000",
            "tags": {
                "title": "Chapter 16"
            }
        }
    ],
    "format": {
        "filename": ".\\Spider-Man.Into.the.Spider-Verse.2018.2160p.BluRay.REMUX.HEVC.DTS-HD.MA.TrueHD.7.1.Atmos-FGT.mkv",
        "nb_streams": 21,
        "nb_programs": 0,
        "format_name": "matroska,webm",
        "format_long_name": "Matroska / WebM",
        "start_time": "0.000000",
        "duration": "7010.070000",
        "size": "50577510793",
        "bit_rate": "57719835",
        "probe_score": 100,
        "tags": {
            "title": "Spider-Man.Into.the.Spider-Verse.2018.2160p.BluRay.REMUX.HEVC.DTS-HD.MA.TrueHD.7.1.Atmos-FGT",
            "encoder": "libebml v1.3.6 + libmatroska v1.4.9",
            "creation_time": "2019-03-10T21:41:18.000000Z"
        }
    }
}